<?xml version="1.0" encoding="utf-8"?>
<svg xmlns="http://www.w3.org/2000/svg" fill="none" height="26" viewBox="-10 -5 140 36" width="120">
  <g clip-path="url(#a)" fill="#30302f">
    <path d="M22.407 16.063H15.165l-3.961 3.96-3.961-3.96H0v3.96h5.602l2.8 2.801 2.802 2.801 2.8-2.8 2.801-2.802h5.602v-3.96ZM22.407 8.139H0v3.96h22.407V8.14ZM22.407.217H0v3.961h22.407V.217ZM31.316.217h3.564v19.438h-3.564V.217ZM40.426 19.1a7.064 7.064 0 0 1-2.673-2.552 6.72 6.72 0 0 1-.985-3.564c0-1.295.328-2.483.985-3.563a7.067 7.067 0 0 1 2.673-2.552 7.443 7.443 0 0 1 3.658-.931c1.314 0 2.533.31 3.658.931a7.079 7.079 0 0 1 2.673 2.552 6.73 6.73 0 0 1 .986 3.563 6.727 6.727 0 0 1-.986 3.564 7.083 7.083 0 0 1-2.673 2.551 7.448 7.448 0 0 1-3.658.932 7.445 7.445 0 0 1-3.658-.932Zm5.535-2.835a3.599 3.599 0 0 0 1.363-1.336 3.738 3.738 0 0 0 .513-1.944c0-.72-.171-1.368-.514-1.944a3.598 3.598 0 0 0-1.362-1.336 3.8 3.8 0 0 0-1.877-.473 3.8 3.8 0 0 0-1.876.473 3.6 3.6 0 0 0-1.364 1.336c-.343.576-.513 1.224-.513 1.944s.17 1.368.513 1.944a3.592 3.592 0 0 0 1.364 1.336 3.797 3.797 0 0 0 1.876.473c.684 0 1.31-.158 1.877-.473ZM53.291.217h3.564v11.582l4.643-5.48h4.238L60.499 12.5l5.615 7.154h-4.562l-4.697-6.183v6.183H53.29V.217ZM69.475 19.168c-1-.576-1.81-1.4-2.43-2.47-.621-1.071-.932-2.31-.932-3.713 0-1.277.297-2.457.891-3.536a6.792 6.792 0 0 1 2.43-2.565 6.325 6.325 0 0 1 3.375-.945c.863 0 1.65.145 2.361.432.711.288 1.256.675 1.634 1.161V6.317h3.563v13.336h-3.563v-1.215a6.174 6.174 0 0 1-1.782 1.188c-.63.27-1.44.405-2.43.405-1.08 0-2.118-.287-3.117-.863Zm6.492-3.51c.666-.72 1-1.61 1-2.672s-.334-1.953-1-2.673c-.666-.72-1.548-1.08-2.645-1.08-1.099 0-1.98.36-2.647 1.08-.665.72-.998 1.611-.998 2.673s.333 1.953.998 2.672c.666.72 1.548 1.08 2.647 1.08 1.097 0 1.98-.36 2.645-1.08ZM82.959.217h3.564v19.438h-3.564V.217ZM89.304 3.833a2.134 2.134 0 0 1-.648-1.565c0-.63.216-1.166.648-1.607.432-.44.954-.661 1.566-.661.63 0 1.165.22 1.606.661.44.441.662.977.662 1.607 0 .611-.22 1.134-.662 1.565a2.211 2.211 0 0 1-1.606.648 2.132 2.132 0 0 1-1.566-.648Zm-.19 2.484h3.564v13.337h-3.563V6.317ZM95.11 18.734l.81-3.347h.161c1.17.9 2.367 1.35 3.59 1.35.505 0 .914-.095 1.229-.284.315-.188.473-.463.473-.823 0-.378-.185-.684-.553-.918-.37-.234-1.058-.521-2.065-.864-1.026-.342-1.822-.837-2.39-1.485-.566-.648-.85-1.412-.85-2.295 0-1.241.462-2.24 1.39-2.996.927-.756 2.1-1.135 3.523-1.135.72 0 1.359.068 1.917.203a5.603 5.603 0 0 1 1.593.661l.135 3.402h-.189c-.648-.414-1.224-.724-1.728-.931a4.447 4.447 0 0 0-1.701-.311c-.45 0-.819.09-1.106.27-.288.18-.432.414-.432.702 0 .378.18.688.54.932.36.243 1.034.535 2.025.877 1.133.378 1.993.837 2.578 1.377.584.54.877 1.377.877 2.51 0 .937-.234 1.738-.702 2.404a4.319 4.319 0 0 1-1.85 1.498c-.765.333-1.606.5-2.524.5-1.854 0-3.438-.432-4.752-1.297ZM109.958 19.087a6.962 6.962 0 0 1-2.632-2.578c-.64-1.09-.959-2.3-.959-3.632 0-1.295.302-2.47.905-3.522a6.624 6.624 0 0 1 2.511-2.497c1.07-.612 2.281-.919 3.63-.919 1.368 0 2.552.32 3.55.959a6.15 6.15 0 0 1 2.268 2.551 7.78 7.78 0 0 1 .769 3.429v1.053h-10.231c.216 1.008.679 1.773 1.39 2.295.711.522 1.651.782 2.821.782 1.782 0 3.338-.584 4.67-1.754h.378l-.135 3.374c-.81.468-1.665.82-2.564 1.053-.901.234-1.764.35-2.592.35-1.404 0-2.664-.315-3.779-.944Zm6.479-7.587c-.09-.81-.428-1.444-1.012-1.903-.585-.458-1.301-.688-2.147-.688-.827 0-1.552.22-2.173.661-.621.441-1.039 1.085-1.255 1.93h6.587Z"/>
  </g>
  <defs>
    <clipPath id="a">
      <path d="M0 0h120v25.623H0z" fill="#fff"/>
    </clipPath>
  </defs>
</svg>