<?xml version="1.0" encoding="utf-8"?>
<svg xmlns="http://www.w3.org/2000/svg" fill="none" height="72" viewBox="0 0 156 72" width="156">
<g filter="url(#filter0_b_5527_1222)">
<mask height="17" id="mask0_5527_1222" maskUnits="userSpaceOnUse" style="mask-type:luminance" width="108" x="24" y="28">
<path d="M24 28H132V44.0744H24V28Z" fill="white"/>
</mask>
<g mask="url(#mask0_5527_1222)">
<path d="M42.1436 40.6733L39.1811 43.8547C39.117 43.9238 39.0394 43.9789 38.9531 44.0167C38.8668 44.0544 38.7737 44.0739 38.6795 44.074H24.6362C24.5692 44.074 24.5037 44.0544 24.4477 44.0176C24.3916 43.9809 24.3475 43.9285 24.3207 43.867C24.294 43.8056 24.2856 43.7376 24.2968 43.6714C24.308 43.6053 24.3382 43.5439 24.3837 43.4947L27.3429 40.3133C27.407 40.2442 27.4846 40.189 27.5709 40.1513C27.6571 40.1135 27.7503 40.094 27.8444 40.0939H41.8878C41.9554 40.0925 42.0219 40.1112 42.0789 40.1475C42.1359 40.1839 42.181 40.2363 42.2083 40.2983C42.2356 40.3602 42.2441 40.4289 42.2326 40.4956C42.221 40.5623 42.1901 40.6241 42.1436 40.6733ZM39.1811 34.2653C39.1168 34.1965 39.0391 34.1415 38.9529 34.1038C38.8666 34.0661 38.7736 34.0464 38.6795 34.0459H24.6362C24.5692 34.0459 24.5037 34.0655 24.4477 34.1023C24.3916 34.1391 24.3475 34.1914 24.3207 34.2529C24.294 34.3144 24.2856 34.3823 24.2968 34.4485C24.308 34.5146 24.3382 34.576 24.3837 34.6253L27.3429 37.8083C27.4072 37.8771 27.4849 37.932 27.5711 37.9698C27.6573 38.0075 27.7503 38.0272 27.8444 38.0277H41.8878C41.9546 38.0273 42.0199 38.0075 42.0757 37.9706C42.1315 37.9337 42.1753 37.8814 42.2019 37.82C42.2285 37.7585 42.2366 37.6907 42.2254 37.6247C42.2141 37.5587 42.184 37.4974 42.1385 37.4483L39.1811 34.2653ZM24.6362 31.9797H38.6795C38.7737 31.9796 38.8668 31.9601 38.9531 31.9223C39.0394 31.8846 39.117 31.8294 39.1811 31.7603L42.1436 28.5789C42.1783 28.5422 42.2045 28.4982 42.2203 28.4501C42.236 28.402 42.241 28.351 42.2348 28.3008C42.2286 28.2506 42.2115 28.2023 42.1845 28.1595C42.1575 28.1167 42.1215 28.0804 42.0789 28.0532C42.0218 28.0168 41.9554 27.9982 41.8878 27.9996H27.8444C27.7503 27.9997 27.6571 28.0192 27.5709 28.057C27.4846 28.0947 27.407 28.1498 27.3429 28.2189L24.3837 31.4003C24.3382 31.4495 24.308 31.511 24.2968 31.5771C24.2856 31.6433 24.294 31.7112 24.3207 31.7727C24.3475 31.8342 24.3916 31.8865 24.4477 31.9233C24.5037 31.96 24.5692 31.9796 24.6362 31.9797Z" fill="#30302F"/>
<path d="M59.2651 34.7978H51.7519V32.3196H61.2178V29.8415H51.7268C51.4025 29.8397 51.0811 29.9019 50.7808 30.0245C50.4805 30.1472 50.2073 30.3279 49.9767 30.5563C49.7462 30.7847 49.5628 31.0564 49.4371 31.3558C49.3114 31.6552 49.2458 31.9764 49.2441 32.3012V34.8128C49.2454 35.1379 49.3107 35.4596 49.4362 35.7593C49.5617 36.0591 49.745 36.3312 49.9755 36.56C50.2061 36.7887 50.4795 36.9697 50.78 37.0926C51.0805 37.2154 51.4022 37.2777 51.7268 37.2759H59.25V39.7541H49.423V42.2322H59.2651C59.7535 42.2349 60.2317 42.0925 60.6393 41.823C61.0468 41.5534 61.3654 41.1688 61.5546 40.7179C61.6804 40.4185 61.746 40.0972 61.7477 39.7725V37.2608C61.7464 36.9358 61.6812 36.6142 61.5557 36.3144C61.4301 36.0146 61.2469 35.7426 61.0163 35.5138C60.7857 35.285 60.5123 35.104 60.2118 34.9812C59.9114 34.8583 59.5896 34.796 59.2651 34.7978ZM73.82 29.8415H66.2784C65.7892 29.8376 65.3098 29.9793 64.9011 30.2486C64.4924 30.518 64.1728 30.9028 63.9828 31.3543C63.8566 31.6541 63.7907 31.9759 63.789 32.3012V39.7725C63.7907 40.0978 63.8566 40.4196 63.9828 40.7195C64.1728 41.1711 64.4924 41.5559 64.9011 41.8252C65.3098 42.0945 65.7892 42.2362 66.2784 42.2322H73.82C74.1443 42.234 74.4657 42.1718 74.766 42.0492C75.0663 41.9265 75.3395 41.7458 75.5701 41.5174C75.8006 41.289 75.984 41.0173 76.1097 40.7179C76.2354 40.4185 76.3009 40.0973 76.3027 39.7725V32.3012C76.301 31.9764 76.2354 31.6552 76.1097 31.3558C75.9839 31.0564 75.8005 30.7848 75.5699 30.5565C75.3394 30.328 75.0663 30.1472 74.766 30.0246C74.4657 29.9019 74.1443 29.8397 73.82 29.8415ZM73.8016 39.7541H66.2968V32.3196H73.7983L73.8016 39.7541ZM100.235 29.8415H92.8788C92.5545 29.8397 92.2331 29.9019 91.9328 30.0245C91.6325 30.1472 91.3593 30.3279 91.1287 30.5563C90.8982 30.7847 90.7148 31.0564 90.5891 31.3558C90.4634 31.6552 90.3979 31.9764 90.3961 32.3012V42.2322H92.9039V38.1617H100.226V42.2322H102.734V32.3012C102.733 31.975 102.666 31.6523 102.54 31.3518C102.413 31.0513 102.228 30.7788 101.996 30.5502C101.764 30.3216 101.488 30.1412 101.186 30.0196C100.884 29.898 100.561 29.8374 100.235 29.8415ZM100.216 35.6835H92.8939V32.3196H100.216V35.6835ZM129.517 29.8415H122.161C121.837 29.8397 121.515 29.9019 121.215 30.0245C120.915 30.1472 120.641 30.3279 120.411 30.5563C120.18 30.7847 119.997 31.0564 119.871 31.3558C119.745 31.6552 119.68 31.9764 119.678 32.3012V42.2322H122.186V38.1617H129.492V42.2322H132V32.3012C131.998 31.9764 131.932 31.6552 131.807 31.3558C131.681 31.0564 131.497 30.7848 131.267 30.5565C130.801 30.0952 130.172 29.838 129.517 29.8415ZM129.492 35.6835H122.169V32.3196H129.492V35.6835ZM114.947 39.7541H113.944L110.358 30.8796C110.235 30.5734 110.023 30.311 109.751 30.126C109.478 29.941 109.156 29.842 108.826 29.8415H106.601C106.275 29.8397 105.957 29.9348 105.685 30.1147C105.413 30.2946 105.201 30.5512 105.075 30.852C104.991 31.0517 104.947 31.2659 104.946 31.4824V42.2322H107.454V32.3196H108.457L112.041 41.1941C112.166 41.4997 112.379 41.7611 112.653 41.9448C112.927 42.1286 113.25 42.2263 113.579 42.2255H115.805C116.021 42.2267 116.235 42.1851 116.435 42.1032C116.636 42.0214 116.818 41.9007 116.972 41.7483C117.282 41.4405 117.457 41.022 117.46 40.5846V29.8415H114.947V39.7541ZM81.0256 29.8415H78.5178V39.7725C78.5195 40.098 78.5854 40.4199 78.7116 40.7198C78.8378 41.0198 79.022 41.2918 79.2534 41.5202C79.4849 41.7487 79.7591 41.9292 80.0603 42.0514C80.3615 42.1736 80.6839 42.235 81.0088 42.2322H88.5321V39.7541H81.0256V29.8415Z" fill="#30302F"/>
</g>
</g>
<defs>
<filter color-interpolation-filters="sRGB" filterUnits="userSpaceOnUse" height="136" id="filter0_b_5527_1222" width="220" x="-32" y="-32">
<feFlood flood-opacity="0" result="BackgroundImageFix"/>
<feGaussianBlur in="BackgroundImageFix" stdDeviation="16"/>
<feComposite in2="SourceAlpha" operator="in" result="effect1_backgroundBlur_5527_1222"/>
<feBlend in="SourceGraphic" in2="effect1_backgroundBlur_5527_1222" mode="normal" result="shape"/>
</filter>
</defs>
</svg>